PathFileType	4	(X/Y/Z)	Patient4_TMGait_0pt5_01_left_05.trc.trc
DataRate	CameraRate	NumFrames	NumMarkers	Units	OrigDataRate	OrigDataStartFrame	OrigNumFrames
71.065989847716	71.065989847716	4	33	mm	71.065989847716	89	       141
Frame#	Time	L.ASIS			Sacral			L.Shoulder			Chest			R.Shoulder			Neck			R.ASIS			R.Thigh.Superior			R.Thigh.Lateral			R.Thigh.Inferior			R.Patella			L.Thigh.Superior			L.Thigh.Lateral			L.Thigh.Inferior			L.Patella			L.Shank.Superior			L.Shank.Lateral			L.Shank.Inferior			R.Shank.Superior			R.Shank.Lateral			R.Shank.Inferior			R.Heel			R.Midfoot.Superior			R.Midfoot.Lateral			R.Toe			L.Heel			L.Midfoot.Lateral			L.Midfoot.Superior			L.Toe			L.Elbow			L.Wrist			R.Elbow			R.Wrist			
		X1	Y1	Z1	X2	Y2	Z2	X3	Y3	Z3	X4	Y4	Z4	X5	Y5	Z5	X6	Y6	Z6	X7	Y7	Z7	X8	Y8	Z8	X9	Y9	Z9	X10	Y10	Z10	X11	Y11	Z11	X12	Y12	Z12	X13	Y13	Z13	X14	Y14	Z14	X15	Y15	Z15	X16	Y16	Z16	X17	Y17	Z17	X18	Y18	Z18	X19	Y19	Z19	X20	Y20	Z20	X21	Y21	Z21	X22	Y22	Z22	X23	Y23	Z23	X24	Y24	Z24	X25	Y25	Z25	X26	Y26	Z26	X27	Y27	Z27	X28	Y28	Z28	X29	Y29	Z29	X30	Y30	Z30	X31	Y31	Z31	X32	Y32	Z32	X33	Y33	Z33	

89	7.808285714286	742.864099364858	961.232047182960	362.292330815652	526.008830223314	998.208529536837	516.000111712070	693.851523051805	1440.271876546694	358.159673441985	789.969452169404	1363.824704931308	520.680113198606	695.239077147280	1427.373179469338	694.478359308131	686.530559416523	1494.205297221629	511.880620054807	755.217975937299	939.111484822465	636.094815362798	815.291364234953	746.674153707694	600.414336454831	745.485649996790	631.736474536177	657.873654172051	826.379665046195	586.978716869540	575.356214996452	836.682895307937	495.842911093546	579.557223625122	780.005185721982	738.767928942051	385.162207670002	688.524363715372	627.495045966155	320.454476705904	769.165406977557	540.440673604327	379.391355145564	760.023461032150	455.848364948286	377.627535568362	694.585364912774	396.801776103552	372.171657559652	559.205388679280	344.264758058982	319.327223137943	549.498496546041	218.426376143146	381.150047701821	809.170296542876	406.189740173722	584.819251041599	743.108227563368	300.445948574288	647.213162827159	782.836681439533	207.283808811652	581.176007492398	648.369645797331	43.401999236003	555.467296753839	820.770094763574	97.729508843611	584.442233824051	734.770353777777	36.848454925252	626.505725710563	942.127564181822	43.944761203758	606.703665113322	360.752900679053	136.535745853352	411.925689552258	428.124781474004	98.151619274894	336.452549309609	528.691392902732	120.523794521154	362.487881876349	621.257218642532	32.432004463386	343.391500203664	720.383060759789	1094.420433947574	219.864279582451	948.278499932361	975.272867137272	257.437248978406	648.411833646671	1080.713858471560	800.418572280773	782.125561641971	857.118895593265	808.645849141858	
90	7.822357142857	741.727867029065	962.235649062397	364.777464125008	525.813715154344	999.185619707593	519.830542882616	691.849048234877	1441.175726469711	360.712682505393	789.600191206629	1364.912951681656	522.390631918419	696.478892441266	1428.511708318138	697.059991693377	685.771773474489	1495.175705044969	514.379486721309	755.658992864779	940.008087421042	638.456811028180	813.381489781927	746.104143748782	603.863429816758	741.726932927414	631.880178273450	660.665203857520	822.478871276966	586.351017452204	578.516802605391	831.405029192412	495.382988633148	582.338651772667	783.679164697238	741.946795482465	387.173208615431	696.009835077080	628.816889424369	321.461596659072	779.503158337320	543.305220466735	379.579472698241	771.417300446292	457.532275920435	376.769652990056	704.204992507288	398.579831901490	371.815279765540	566.561786540735	350.648768230694	320.214246991056	553.799906554948	224.781706389227	381.395672007163	803.652686316324	405.953809891411	587.080237933792	736.833539174740	300.266920861575	648.682004186003	776.425398264085	207.208077774059	582.454782501664	641.180764133113	43.578981524523	555.730172357263	813.853864134825	97.625877623206	584.949235993264	727.580106542244	36.794150714595	626.738772077695	935.011382166903	43.271733845766	606.995100457410	362.371191052058	150.743779678007	413.536781655686	427.387431260450	109.200601948000	337.435638044882	529.456912756968	126.491557337088	362.629758342047	616.982640111278	32.524521028226	342.701071836794	715.519956699615	1094.315136738317	223.874464210411	939.649322864708	966.418522119979	258.891378295151	657.065805103983	1081.756784579181	806.073131426857	800.088785269802	864.146278711411	813.325525030235	
91	7.836428571429	740.435552864239	963.208265455954	367.113473998131	525.466747931016	1000.097867436166	523.538447656625	689.629893732977	1442.004122254714	363.153163168007	789.078818370459	1365.939049493851	523.942855669716	697.614248476151	1429.569981987717	699.457537826079	684.896410364976	1496.101852799109	516.763474375290	755.918653195923	940.850750044989	640.685086349497	811.249418885970	745.572023631247	607.140265336246	737.789195935557	632.067600894756	663.323733784258	818.411221444932	585.770352353814	581.592613118757	825.948079097797	494.973985684731	585.102084823318	787.011193919657	745.296188871145	388.984384951540	703.039039590124	630.510233362846	322.211125639146	789.253184782065	546.633900068559	379.472512042316	782.303161897890	459.786902746360	375.770043003913	713.685934097001	400.775620260721	371.265907309782	574.053511780460	356.896078134820	321.082918469046	558.794915636204	231.027080534818	381.702880599722	797.984370310880	405.757391305532	589.331907289673	730.359776499434	300.123922693307	650.114033252484	769.929802756480	207.154104985964	583.764057206570	633.906930303356	43.769321145147	556.006085095713	806.890485169418	97.494471244376	585.468968850850	720.310386607391	36.732751639887	626.980673105592	927.818009863958	42.563300700623	607.286098224583	365.324288073208	163.735475951784	415.567531179736	428.000974543318	119.773360739017	338.613341725735	531.325181197956	132.582590063522	362.810029553223	614.371149860244	33.084684330040	341.530551430616	710.257596555028	1094.106715931110	227.850521572008	929.874755910550	956.930521787698	259.764082101248	665.674785079962	1082.968766427213	811.577240363228	817.627449165907	871.600510636138	817.872413042319	
92	7.850500000000	738.990646646095	964.185397237935	369.277134990559	524.973101504402	1000.963201081908	527.104693092160	687.234867730646	1442.793745955454	365.503709884144	788.412212562916	1366.918647230538	525.364094790281	698.628326602352	1430.551124864309	701.690713407215	683.930908957827	1497.002482495152	519.058964802042	756.005115832488	941.658251050243	642.757923492742	808.914713837577	745.105509870499	610.139695217526	733.733328279325	632.316054634730	665.791063223476	814.184822477770	585.252233921322	584.475219530988	820.343863966929	494.631173714627	587.736555201016	789.924998756427	748.795381151513	390.560992028467	709.434802222764	632.565346248605	322.722120801296	798.235068668144	550.386428188983	379.045336365362	792.523233907646	462.593117276805	374.591679400239	722.895673683196	403.348370434983	370.502886254729	581.569194427566	362.760004687940	321.899329106582	564.548656988493	236.848805504335	382.000045660806	792.193929032629	405.620235875693	591.493685074534	723.750967175535	300.047215032568	651.475790468367	763.385068561314	207.145810076700	585.056951132390	626.609450253939	43.981002986323	556.291706604194	799.923886148020	97.372400754182	585.986396325083	713.025743670882	36.679887655181	627.221814561816	920.602600110077	41.886190975027	607.564598485527	369.726084566508	174.801541635456	417.924907490077	430.197034798485	129.256491969193	339.907786228811	534.524877671531	138.435065001956	362.941633747609	613.899628353478	34.109379006392	339.827919125296	704.630161569710	1093.852961570032	231.800378596809	918.862873289578	946.921506965972	260.071033324852	674.205999855467	1084.320090415904	816.841323083432	834.671884995992	879.422675613237	822.244359486313	
